<mxfile host="65bd71144e">
    <diagram id="Clk5Qt_XxYXX5bpeS9IG" name="Page-1">
        <mxGraphModel dx="833" dy="523" grid="1" gridSize="10" guides="1" tooltips="1" connect="1" arrows="1" fold="1" page="1" pageScale="1" pageWidth="827" pageHeight="1169" math="0" shadow="0">
            <root>
                <mxCell id="0"/>
                <mxCell id="1" parent="0"/>
                <mxCell id="6" value="" style="edgeStyle=none;html=1;" edge="1" parent="1" source="2" target="5">
                    <mxGeometry relative="1" as="geometry"/>
                </mxCell>
                <mxCell id="2" value="render" style="rounded=1;whiteSpace=wrap;html=1;" vertex="1" parent="1">
                    <mxGeometry x="80" y="120" width="80" height="30" as="geometry"/>
                </mxCell>
                <mxCell id="15" style="edgeStyle=none;html=1;entryX=0;entryY=0.5;entryDx=0;entryDy=0;exitX=1;exitY=0.5;exitDx=0;exitDy=0;" edge="1" parent="1" source="3" target="11">
                    <mxGeometry relative="1" as="geometry">
                        <mxPoint x="880" y="225" as="targetPoint"/>
                        <Array as="points">
                            <mxPoint x="880" y="225"/>
                            <mxPoint x="880" y="190"/>
                        </Array>
                    </mxGeometry>
                </mxCell>
                <mxCell id="3" value="createBlockingRoot​" style="rounded=1;whiteSpace=wrap;html=1;" vertex="1" parent="1">
                    <mxGeometry x="720" y="210" width="120" height="30" as="geometry"/>
                </mxCell>
                <mxCell id="18" value="" style="edgeStyle=none;html=1;" edge="1" parent="1" source="4" target="17">
                    <mxGeometry relative="1" as="geometry"/>
                </mxCell>
                <mxCell id="4" value="createRoot​" style="rounded=1;whiteSpace=wrap;html=1;" vertex="1" parent="1">
                    <mxGeometry x="760" y="290" width="80" height="30" as="geometry"/>
                </mxCell>
                <mxCell id="8" value="" style="edgeStyle=none;html=1;" edge="1" parent="1" source="5" target="7">
                    <mxGeometry relative="1" as="geometry"/>
                </mxCell>
                <mxCell id="5" value="legacyRenderSubtreeIntoContainer​" style="rounded=1;whiteSpace=wrap;html=1;" vertex="1" parent="1">
                    <mxGeometry x="200" y="112.5" width="200" height="47.5" as="geometry"/>
                </mxCell>
                <mxCell id="10" value="" style="edgeStyle=none;html=1;" edge="1" parent="1" source="7" target="9">
                    <mxGeometry relative="1" as="geometry"/>
                </mxCell>
                <mxCell id="7" value="legacyCreateRootFromDOMContainer​" style="rounded=1;whiteSpace=wrap;html=1;" vertex="1" parent="1">
                    <mxGeometry x="440" y="113.75" width="240" height="46.25" as="geometry"/>
                </mxCell>
                <mxCell id="12" value="" style="edgeStyle=none;html=1;exitX=1;exitY=0.5;exitDx=0;exitDy=0;entryX=0;entryY=0.5;entryDx=0;entryDy=0;" edge="1" parent="1" source="9" target="11">
                    <mxGeometry relative="1" as="geometry">
                        <mxPoint x="930" y="202" as="targetPoint"/>
                        <Array as="points">
                            <mxPoint x="880" y="136"/>
                            <mxPoint x="880" y="190"/>
                        </Array>
                    </mxGeometry>
                </mxCell>
                <mxCell id="9" value="createLegacyRoot​" style="rounded=1;whiteSpace=wrap;html=1;" vertex="1" parent="1">
                    <mxGeometry x="720" y="112.5" width="120" height="47.5" as="geometry"/>
                </mxCell>
                <mxCell id="16" style="edgeStyle=none;html=1;" edge="1" parent="1" source="11">
                    <mxGeometry relative="1" as="geometry">
                        <mxPoint x="1000" y="180" as="targetPoint"/>
                    </mxGeometry>
                </mxCell>
                <mxCell id="20" value="" style="edgeStyle=none;html=1;exitX=1;exitY=0.5;exitDx=0;exitDy=0;" edge="1" parent="1" source="11" target="19">
                    <mxGeometry relative="1" as="geometry">
                        <Array as="points">
                            <mxPoint x="1130" y="192"/>
                            <mxPoint x="1130" y="259"/>
                        </Array>
                    </mxGeometry>
                </mxCell>
                <mxCell id="11" value="ReactDOMBlockingRoot​" style="whiteSpace=wrap;html=1;rounded=1;" vertex="1" parent="1">
                    <mxGeometry x="940" y="170" width="160" height="43.12" as="geometry"/>
                </mxCell>
                <mxCell id="21" style="edgeStyle=none;html=1;entryX=0;entryY=0.5;entryDx=0;entryDy=0;" edge="1" parent="1" source="17" target="19">
                    <mxGeometry relative="1" as="geometry">
                        <Array as="points">
                            <mxPoint x="1130" y="305"/>
                            <mxPoint x="1130" y="259"/>
                        </Array>
                    </mxGeometry>
                </mxCell>
                <mxCell id="17" value="&lt;meta charset=&quot;utf-8&quot;&gt;ReactDOMRoot​" style="whiteSpace=wrap;html=1;rounded=1;" vertex="1" parent="1">
                    <mxGeometry x="970" y="282.5" width="100" height="45" as="geometry"/>
                </mxCell>
                <mxCell id="23" value="" style="edgeStyle=none;html=1;" edge="1" parent="1" source="19" target="22">
                    <mxGeometry relative="1" as="geometry"/>
                </mxCell>
                <mxCell id="19" value="&lt;meta charset=&quot;utf-8&quot;&gt;createRootImpl​" style="whiteSpace=wrap;html=1;rounded=1;" vertex="1" parent="1">
                    <mxGeometry x="1160" y="240" width="100" height="38.44" as="geometry"/>
                </mxCell>
                <mxCell id="22" value="&lt;meta charset=&quot;utf-8&quot;&gt;createContainer​" style="whiteSpace=wrap;html=1;rounded=1;" vertex="1" parent="1">
                    <mxGeometry x="1290" y="237.66" width="110" height="40.78" as="geometry"/>
                </mxCell>
            </root>
        </mxGraphModel>
    </diagram>
</mxfile>